<svg xmlns="http://www.w3.org/2000/svg" width="20" height="20" viewBox="0 0 14 14" fill="none">
    <path
        d="M11.4364 4.11127C11.2941 3.96897 11.1011 3.8891 10.8998 3.8891C10.6985 3.8891 10.5055 3.96897 10.3631 4.11127L6.58701 8.01041C6.51651 8.08098 6.43279 8.13703 6.34063 8.17523C6.24848 8.21343 6.14977 8.23296 6.05001 8.23296C5.95026 8.23296 5.85145 8.21343 5.7593 8.17523C5.66714 8.13703 5.58342 8.08098 5.51292 8.01041L4.40853 6.86235C4.3389 6.78808 4.25504 6.72852 4.16196 6.68728C4.06889 6.64604 3.96848 6.62401 3.86669 6.62233C3.7649 6.62066 3.66381 6.63925 3.56942 6.6774C3.47503 6.71555 3.3892 6.77257 3.31716 6.8445C3.24512 6.91644 3.18834 7.00196 3.15006 7.09629C3.11177 7.19063 3.09279 7.29148 3.09432 7.39328C3.09585 7.49507 3.11778 7.5956 3.15889 7.68874C3.19999 7.78188 3.25941 7.86586 3.33358 7.93559L5.5114 10.1592C5.65388 10.3015 5.84699 10.3817 6.0484 10.3817C6.2498 10.3817 6.44301 10.3015 6.58549 10.1592L11.4349 5.18147C11.5771 5.03976 11.6571 4.84745 11.6574 4.64675C11.6577 4.44604 11.5782 4.2534 11.4364 4.11127Z"
        fill="white" />
</svg>